<?xml version="1.0" encoding="UTF-8" standalone="no"?>
<!-- Created with Inkscape (http://www.inkscape.org/) -->

<svg
   xmlns:dc="http://purl.org/dc/elements/1.1/"
   xmlns:cc="http://creativecommons.org/ns#"
   xmlns:rdf="http://www.w3.org/1999/02/22-rdf-syntax-ns#"
   xmlns:svg="http://www.w3.org/2000/svg"
   xmlns="http://www.w3.org/2000/svg"
   xmlns:xlink="http://www.w3.org/1999/xlink"
   xmlns:sodipodi="http://sodipodi.sourceforge.net/DTD/sodipodi-0.dtd"
   xmlns:inkscape="http://www.inkscape.org/namespaces/inkscape"
   width="100"
   height="100"
   viewBox="0 0 26.458333 26.458334"
   version="1.1"
   id="svg8"
   inkscape:version="0.92.3 (2405546, 2018-03-11)"
   sodipodi:docname="rolodex_button.svg">
  <defs
     id="defs2">
    <color-profile
       name="sRGB"
       xlink:href="/usr/share/color/icc/colord/sRGB.icc"
       id="color-profile3721" />
  </defs>
  <sodipodi:namedview
     id="base"
     pagecolor="#ffffff"
     bordercolor="#666666"
     borderopacity="1.0"
     inkscape:pageopacity="0"
     inkscape:pageshadow="2"
     inkscape:zoom="7.9195959"
     inkscape:cx="54.770639"
     inkscape:cy="49.323698"
     inkscape:document-units="mm"
     inkscape:current-layer="layer1"
     showgrid="false"
     units="px"
     inkscape:pagecheckerboard="false"
     inkscape:window-width="1853"
     inkscape:window-height="1025"
     inkscape:window-x="67"
     inkscape:window-y="27"
     inkscape:window-maximized="1" />
  <metadata
     id="metadata5">
    <rdf:RDF>
      <cc:Work
         rdf:about="">
        <dc:format>image/svg+xml</dc:format>
        <dc:type
           rdf:resource="http://purl.org/dc/dcmitype/StillImage" />
        <dc:title></dc:title>
      </cc:Work>
    </rdf:RDF>
  </metadata>
  <g
     inkscape:label="Layer 1"
     inkscape:groupmode="layer"
     id="layer1"
     transform="translate(0,-270.54165)">
    <circle
       id="path3723"
       style="stroke-width:0.47648174"
       cy="283.77081"
       cx="13.229167"
       r="13.229167" />
    <circle
       id="path3723-3"
       style="stroke-width:0.46695212"
       cy="284.0354"
       cx="12.964583"
       r="12.964583" />
    <path
       d="M 44.71037,99.753889 C 32.604509,98.544955 22.013193,93.434946 13.716345,84.800155 9.9649515,80.89596 7.3742641,77.157451 4.9642563,72.170391 1.253654,64.491994 -0.31612572,56.432467 0.16561692,47.533326 0.66417142,38.323625 3.4536288,29.863075 8.4689447,22.348962 15.573773,11.704271 26.711679,4.0522036 39.103686,1.3019985 42.5128,0.54540097 44.727292,0.27809702 48.480268,0.17018195 53.13155,0.03643652 56.977606,0.38367963 60.96037,1.2969546 c 9.43712,2.1639956 17.749827,6.7985545 24.501847,13.6604434 2.659082,2.70235 4.036325,4.388002 6.039194,7.391564 7.867966,11.799041 10.342059,26.157507 6.873991,39.893447 -2.302423,9.119187 -7.044828,17.220989 -13.956285,23.842546 -7.622445,7.302723 -17.265768,11.948686 -27.833747,13.409748 -2.429623,0.335906 -9.550437,0.491325 -11.875,0.259186 z"
       id="path3744"
       inkscape:connector-curvature="0"
       style="stroke-width:0.17857143"
       transform="matrix(0.26458333,0,0,0.26458333,0,270.54165)" />
    <path
       d="M 45.424656,99.812793 C 43.673425,99.692987 40.392584,99.199535 38.398045,98.755962 22.820404,95.291578 9.7825442,84.267 3.6708732,69.391296 -0.56048314,59.092246 -1.0968934,46.516391 2.2264356,35.527216 5.7219631,23.968637 13.468899,13.923194 23.828436,7.5159295 29.745365,3.8563711 36.471772,1.4662589 43.728227,0.44488392 46.325179,0.07935271 54.146068,0.13298913 56.853227,0.53489643 67.985751,2.1876409 77.655945,7.0488336 85.466809,14.918904 c 17.804001,17.938949 19.312541,46.433722 3.508372,66.269344 -1.687861,2.118414 -6.077504,6.470055 -8.104097,8.033937 -7.995341,6.169854 -16.802212,9.622943 -26.875,10.537431 -1.823612,0.165562 -6.504173,0.1946 -8.571428,0.05318 z"
       id="path3746"
       inkscape:connector-curvature="0"
       style="stroke-width:0.17857143"
       transform="matrix(0.26458333,0,0,0.26458333,0,270.54165)" />
    <path
       d="m 11.998466,296.99028 c -2.3501495,-0.21977 -4.3266158,-0.90996 -6.2217813,-2.17268 -3.035661,-2.02261 -5.08561646,-5.25665 -5.62878139,-8.88004 -0.31531949,-2.10346 -0.12279878,-4.36151 0.54250463,-6.36295 0.67506626,-2.03082 1.67077716,-3.62846 3.23669226,-5.19335 1.1158912,-1.11517 2.0478632,-1.78815 3.435521,-2.48082 1.33282,-0.6653 2.6703358,-1.07619 4.2100198,-1.29333 0.691654,-0.0975 2.811892,-0.0832 3.50123,0.0238 3.590607,0.55696 6.593489,2.33892 8.735231,5.18362 2.598721,3.45167 3.338994,7.9617 1.983333,12.08324 -0.628109,1.9096 -1.645493,3.60301 -3.022619,5.03106 -0.738063,0.76535 -1.347241,1.27629 -2.224966,1.86618 -1.222074,0.82131 -2.587643,1.43118 -4.032314,1.80087 -1.131824,0.28964 -1.850132,0.38005 -3.165623,0.39844 -0.624544,0.009 -1.231345,0.007 -1.348447,-0.004 z"
       id="path3748"
       inkscape:connector-curvature="0"
       style="stroke-width:0.04736006" />
    <path
       d="M 11.978086,296.72613 C 7.7224943,296.33854 4.0357429,293.9793 1.9228004,290.2915 c -1.79071811,-3.12541 -2.15416219,-7.07868 -0.97772548,-10.63495 0.43428638,-1.31282 1.07618568,-2.53493 1.93984348,-3.69329 0.5342273,-0.71652 1.7657849,-1.96623 2.4503592,-2.48648 1.9920493,-1.51389 4.3119109,-2.42066 6.7462704,-2.63694 0.760977,-0.0676 2.328169,-0.0288 3.002692,0.0744 4.346784,0.66499 7.973266,3.3447 9.850073,7.2785 1.759953,3.68887 1.670997,8.01554 -0.239383,11.64338 -0.346756,0.65849 -1.037397,1.68636 -1.513207,2.25207 -0.452791,0.53835 -1.283383,1.35733 -1.813353,1.788 -1.232911,1.00191 -2.954743,1.9077 -4.45793,2.34514 -1.234854,0.35937 -2.149357,0.48895 -3.5879,0.5084 -0.624708,0.009 -1.229711,0.007 -1.344454,-0.004 z"
       id="path3750"
       inkscape:connector-curvature="0"
       style="fill:#bb8f57;fill-opacity:1;stroke-width:0.04639749" />
    <path
       sodipodi:type="star"
       style="fill:#000000;fill-opacity:1;stroke-width:0.26458332"
       id="path4584"
       sodipodi:sides="3"
       sodipodi:cx="12.595075"
       sodipodi:cy="283.66995"
       sodipodi:r1="9.3544931"
       sodipodi:r2="4.6772466"
       sodipodi:arg1="-1.5672249"
       sodipodi:arg2="-0.52002736"
       inkscape:flatsided="false"
       inkscape:rounded="0"
       inkscape:randomized="0"
       d="m 12.628483,274.31552 4.025532,7.03029 4.025532,7.03029 -8.101177,-0.0289 -8.1011768,-0.0289 4.0756451,-7.00136 z"
       inkscape:transform-center-x="-0.18818448"
       inkscape:transform-center-y="-5.7449166"
       transform="matrix(1.2343885,0,0,1.25,-2.2974289,-69.470144)" />
  </g>
</svg>
